#!OML:ASF X:\für Bonn\!DataBase\2005_08_10_Bjorn_Final\c3d\bjorn.ASF
:FULLY-SPECIFIED
:DEGREES
76
root 18.5055 19.0243 1.14789 1128.83 -85.5818 -385.637
lowerback 37.5323 6.55258 5.94097
upperback 24.0843 6.03929 -1.68236
thorax 9.13702 2.90458 -6.51559
lowerneck 14.0371 -3.69625 3.19111
upperneck -13.9596 -5.06677 -3.75621
head -6.74478 -2.3297 -1.22106
rclavicle 9.54166e-015 -9.34288e-014
rhumerus 46.288 -6.11516 -69.7741
rradius 19.9549
rwrist -11.3223
rhand -12.0294 10.0065
rfingers 7.12502
rthumb 14.0287 -19.5001
lclavicle 9.54166e-015 -9.34288e-014
lhumerus -3.11376 -22.094 80.8472
lradius 55.4954
lwrist 1.10864
lhand -26.5027 -10.1378
lfingers 7.12502
lthumb 0.0601957 19.8419
rfemur -52.484 -9.26005 20.0981
rtibia 50.5509
rfoot -4.76548 15.7966
rtoes -2.50194
lfemur -51.8141 13.7459 -22.3234
ltibia 38.6187
lfoot -4.31081 -4.68602
ltoes -10.4115
77
root 18.4895 19.0096 1.16401 1129.2 -85.474 -385.334
lowerback 38.0724 6.58591 6.03769
upperback 24.0885 6.0923 -1.68315
thorax 8.98944 2.94014 -6.59656
lowerneck 14.1831 -3.82927 3.4199
upperneck -14.2948 -5.21415 -3.76602
head -6.88965 -2.40991 -1.24143
rclavicle 1.59028e-014 -2.92213e-014
rhumerus 47.4536 -6.7081 -69.8985
rradius 19.373
rwrist -10.7211
rhand -11.9964 9.93299
rfingers 7.12502
rthumb 14.0605 -19.5714
lclavicle 1.59028e-014 -2.92213e-014
lhumerus -3.1656 -22.3233 80.7371
lradius 55.6656
lwrist 1.27303
lhand -26.5816 -10.2027
lfingers 7.12502
lthumb -0.0159892 19.777
rfemur -53.7754 -9.07818 20.0721
rtibia 50.989
rfoot -4.8807 15.6935
rtoes -1.58444
lfemur -52.7657 13.7704 -22.575
ltibia 38.9522
lfoot -4.35414 -4.89252
ltoes -10.1069
78
root 18.4722 18.9934 1.17833 1129.5 -85.3624 -384.972
lowerback 38.6083 6.61554 6.15426
upperback 24.1052 6.1447 -1.69319
thorax 8.86518 2.97993 -6.69721
lowerneck 14.2781 -3.97176 3.6544
upperneck -14.6172 -5.3699 -3.75281
head -7.02225 -2.49784 -1.25487
rclavicle -4.45278e-014 3.97569e-014
rhumerus 48.6739 -7.43735 -70.2885
rradius 18.7781
rwrist -9.88955
rhand -11.9392 9.89506
rfingers 7.12502
rthumb 14.1156 -19.6055
lclavicle -4.45278e-014 3.97569e-014
lhumerus -3.20861 -22.5446 80.6111
lradius 55.8132
lwrist 1.42814
lhand -26.7092 -10.36
lfingers 7.12502
lthumb -0.13921 19.6196
rfemur -55.029 -8.91137 20.048
rtibia 51.305
rfoot -5.09238 15.6189
rtoes -0.862517
lfemur -53.6952 13.7602 -22.8065
ltibia 39.2952
lfoot -4.43773 -5.04761
ltoes -10.1636
79
root 18.4539 18.9754 1.19073 1129.62 -85.2468 -384.461
lowerback 39.1668 6.63827 6.28145
upperback 24.1052 6.1971 -1.70657
thorax 8.71908 3.02097 -6.80779
lowerneck 14.3849 -4.12642 3.92247
upperneck -14.9435 -5.53672 -3.75396
head -7.16083 -2.59199 -1.27649
rclavicle 2.38542e-014 1.98785e-014
rhumerus 49.8216 -8.07993 -70.5927
rradius 18.2676
rwrist -9.1832
rhand -11.9167 9.78763
rfingers 7.12502
rthumb 14.1373 -19.7114
lclavicle 2.38542e-014 1.98785e-014
lhumerus -3.24788 -22.8042 80.4721
lradius 55.8936
lwrist 1.62965
lhand -26.7966 -10.5164
lfingers 7.12502
lthumb -0.223673 19.4632
rfemur -56.2281 -8.74084 20.0015
rtibia 51.4913
rfoot -5.38377 15.5561
rtoes 0.0932698
lfemur -54.6133 13.7554 -23.0458
ltibia 39.6542
lfoot -4.50289 -5.22804
ltoes -9.88862
80
root 18.4342 18.9542 1.20093 1129.67 -85.1245 -383.867
lowerback 39.7046 6.65798 6.36834
upperback 24.1057 6.23567 -1.70416
thorax 8.5743 3.04795 -6.87641
lowerneck 14.4802 -4.25439 4.14081
upperneck -15.2747 -5.67771 -3.75249
head -7.29739 -2.6718 -1.29177
rclavicle 9.38264e-014 9.14409e-015
rhumerus 50.9876 -8.72836 -71.0338
rradius 17.7771
rwrist -8.37213
rhand -11.8994 9.7378
rfingers 7.12502
rthumb 14.154 -19.7601
lclavicle 9.38264e-014 9.14409e-015
lhumerus -3.32279 -22.9952 80.3625
lradius 55.9587
lwrist 1.81256
lhand -26.9134 -10.6409
lfingers 7.12502
lthumb -0.3364 19.3386
rfemur -57.3876 -8.59883 19.9683
rtibia 51.572
rfoot -5.84551 15.5074
rtoes 0.579879
lfemur -55.5451 13.7484 -23.2867
ltibia 40.0405
lfoot -4.5822 -5.40886
ltoes -9.66655
81
root 18.4133 18.9313 1.20995 1129.37 -84.989 -382.934
lowerback 40.239 6.65467 6.48786
upperback 24.0835 6.26489 -1.72512
thorax 8.41187 3.07773 -6.98475
lowerneck 14.5795 -4.39965 4.44046
upperneck -15.5747 -5.82531 -3.77122
head -7.42868 -2.75784 -1.32579
rclavicle -1.27222e-014 4.55217e-014
rhumerus 52.0706 -9.34904 -71.4759
rradius 17.3441
rwrist -7.62082
rhand -11.8607 9.70546
rfingers 7.12502
rthumb 14.1912 -19.7898
lclavicle -1.27222e-014 4.55217e-014
lhumerus -3.43844 -23.2324 80.2255
lradius 55.9868
lwrist 1.98267
lhand -27.0484 -10.836
lfingers 7.12502
lthumb -0.4668 19.1432
rfemur -58.4997 -8.47071 19.9025
rtibia 51.5475
rfoot -6.3806 15.443
rtoes 1.11362
lfemur -56.4783 13.7059 -23.5327
ltibia 40.4501
lfoot -4.67714 -5.59765
ltoes -9.20728
82
root 18.3909 18.9067 1.2171 1128.66 -84.8834 -381.599
lowerback 40.7636 6.65647 6.558
upperback 24.0775 6.28325 -1.74156
thorax 8.2662 3.09618 -7.05947
lowerneck 14.5855 -4.5272 4.76072
upperneck -15.838 -5.95185 -3.81792
head -7.5332 -2.83456 -1.37637
rclavicle 6.36111e-015 -2.8625e-014
rhumerus 53.2016 -10.0021 -72.0242
rradius 16.9294
rwrist -6.78623
rhand -11.8015 9.75159
rfingers 7.12502
rthumb 14.2482 -19.7396
lclavicle 6.36111e-015 -2.8625e-014
lhumerus -3.51152 -23.4037 80.1167
lradius 55.9637
lwrist 2.03586
lhand -27.1804 -10.9291
lfingers 7.12502
lthumb -0.594291 19.0498
rfemur -59.5569 -8.32238 19.7638
rtibia 51.4447
rfoot -7.04213 15.3209
rtoes 1.35261
lfemur -57.404 13.6636 -23.8323
ltibia 40.8686
lfoot -4.77358 -5.79271
ltoes -8.94499
83
root 18.3672 18.8822 1.22256 1128.14 -84.7602 -380.463
lowerback 41.2979 6.649 6.62142
upperback 24.0469 6.29483 -1.75472
thorax 8.08896 3.10837 -7.12603
lowerneck 14.6 -4.64782 5.10123
upperneck -16.0706 -6.06548 -3.88313
head -7.6306 -2.90465 -1.43769
rclavicle -5.08889e-014 -5.04913e-014
rhumerus 54.2995 -10.5532 -72.5084
rradius 16.5144
rwrist -6.05515
rhand -11.7806 9.91484
rfingers 7.12502
rthumb 14.2684 -19.575
lclavicle -5.08889e-014 -5.04913e-014
lhumerus -3.67498 -23.5498 80.0289
lradius 55.9695
lwrist 2.08534
lhand -27.2663 -10.8894
lfingers 7.12502
lthumb -0.677307 19.0893
rfemur -60.5693 -8.18295 19.6474
rtibia 51.2543
rfoot -7.6942 15.1916
rtoes 1.56257
lfemur -58.311 13.6114 -24.0917
ltibia 41.2907
lfoot -4.85207 -5.98388
ltoes -8.5101
84
root 18.3439 18.8593 1.22654 1127.05 -84.6367 -378.765
lowerback 41.8058 6.61214 6.67609
upperback 24.0252 6.27008 -1.77728
thorax 7.92699 3.10392 -7.18759
lowerneck 14.6181 -4.75698 5.38632
upperneck -16.3332 -6.17117 -3.91648
head -7.73601 -2.97111 -1.48012
rclavicle -9.54166e-015 -5.60573e-014
rhumerus 55.4156 -11.0763 -73.0627
rradius 16.1248
rwrist -5.31332
rhand -11.7295 10.1109
rfingers 7.12502
rthumb 14.3177 -19.3754
lclavicle -9.54166e-015 -5.60573e-014
lhumerus -3.80051 -23.6656 79.9266
lradius 55.9207
lwrist 2.11211
lhand -27.2743 -10.7509
lfingers 7.12502
lthumb -0.684996 19.2277
rfemur -61.5806 -8.04595 19.459
rtibia 50.9955
rfoot -8.3989 15.0027
rtoes 1.38632
lfemur -59.1981 13.5262 -24.3962
ltibia 41.7022
lfoot -4.94382 -6.17381
ltoes -8.21086
85
root 18.3183 18.8362 1.23018 1125.88 -84.5409 -376.971
lowerback 42.2643 6.58068 6.71326
upperback 24.0216 6.24334 -1.80555
thorax 7.80087 3.09921 -7.24356
lowerneck 14.5216 -4.8538 5.66287
upperneck -16.5113 -6.26738 -3.96195
head -7.79363 -3.03361 -1.52906
rclavicle -1.90833e-014 -2.34566e-014
rhumerus 56.5817 -11.597 -73.6426
rradius 15.7092
rwrist -4.4958
rhand -11.6716 10.3259
rfingers 7.12502
rthumb 14.3734 -19.1564
lclavicle -1.90833e-014 -2.34566e-014
lhumerus -3.89675 -23.7748 79.8416
lradius 55.8334
lwrist 2.12248
lhand -27.2256 -10.4857
lfingers 7.12502
lthumb -0.638011 19.4931
rfemur -62.5854 -7.91954 19.2345
rtibia 50.6634
rfoot -8.98014 14.8365
rtoes 1.62126
lfemur -60.0909 13.4284 -24.7263
ltibia 42.1117
lfoot -5.04261 -6.35525
ltoes -7.80634
